HIERARCHY
ROOT Hips
{
	OFFSET -4.489117 87.346947 1.598714
	CHANNELS 6 Xposition Yposition Zposition Zrotation Yrotation Xrotation 
	JOINT Spine
	{
		OFFSET -0.000000 8.814246 -2.080107
		CHANNELS 3 Zrotation Yrotation Xrotation
		JOINT Spine1
		{
			OFFSET -0.000000 8.844141 0.000000
			CHANNELS 3 Zrotation Yrotation Xrotation
			JOINT Spine2
			{
				OFFSET 0.000000 11.682268 0.000000
				CHANNELS 3 Zrotation Yrotation Xrotation
				JOINT Spine3
				{
					OFFSET 0.000000 11.746700 0.000000
					CHANNELS 3 Zrotation Yrotation Xrotation
					JOINT Neck
					{
						OFFSET -0.000000 17.658264 -0.000000
						CHANNELS 3 Zrotation Yrotation Xrotation
						JOINT Neck1
						{
							OFFSET 0.000000 5.101515 0.000000
							CHANNELS 3 Zrotation Yrotation Xrotation
							JOINT Head
							{
								OFFSET 0.000000 5.101515 0.000000
								CHANNELS 3 Zrotation Yrotation Xrotation
								JOINT HeadEnd
								{
									OFFSET 0.000000 11.655085 -0.000000
									CHANNELS 3 Zrotation Yrotation Xrotation
									End Site
									{
										OFFSET 0.000000 0.000000 0.000000
									}
								}
							}
						}
					}
					JOINT RightShoulder
					{
						OFFSET -2.625389 11.175210 -0.000000
						CHANNELS 3 Zrotation Yrotation Xrotation
						JOINT RightArm
						{
							OFFSET -0.000000 10.434715 -0.000000
							CHANNELS 3 Zrotation Yrotation Xrotation
							JOINT RightForeArm
							{
								OFFSET 0.000000 29.628420 0.000000
								CHANNELS 3 Zrotation Yrotation Xrotation
								JOINT RightHand
								{
									OFFSET -0.000000 22.857611 -0.000000
									CHANNELS 3 Zrotation Yrotation Xrotation
									JOINT RightHandThumb1
									{
										OFFSET -2.867323 3.959563 2.944291
										CHANNELS 3 Zrotation Yrotation Xrotation
										JOINT RightHandThumb2
										{
											OFFSET 0.000000 3.350399 0.000000
											CHANNELS 3 Zrotation Yrotation Xrotation
											JOINT RightHandThumb3
											{
												OFFSET 0.000000 3.756509 -0.000000
												CHANNELS 3 Zrotation Yrotation Xrotation
												JOINT RightHandThumb4
												{
													OFFSET 0.000000 3.147345 0.000000
													CHANNELS 3 Zrotation Yrotation Xrotation
													End Site
													{
														OFFSET 0.000000 0.000000 0.000000
													}
												}
											}
										}
									}
									JOINT RightHandIndex1
									{
										OFFSET -0.086752 10.030893 2.345280
										CHANNELS 3 Zrotation Yrotation Xrotation
										JOINT RightHandIndex2
										{
											OFFSET 0.000000 4.061090 0.000000
											CHANNELS 3 Zrotation Yrotation Xrotation
											JOINT RightHandIndex3
											{
												OFFSET 0.000000 3.248873 0.000000
												CHANNELS 3 Zrotation Yrotation Xrotation
												JOINT RightHandIndex4
												{
													OFFSET 0.000000 2.639709 0.000000
													CHANNELS 3 Zrotation Yrotation Xrotation
													End Site
													{
														OFFSET 0.000000 0.000000 0.000000
													}
												}
											}
										}
									}
									JOINT RightHandMiddle1
									{
										OFFSET 0.104102 9.502952 0.006768
										CHANNELS 3 Zrotation Yrotation Xrotation
										JOINT RightHandMiddle2
										{
											OFFSET 0.000000 4.568727 0.000000
											CHANNELS 3 Zrotation Yrotation Xrotation
											JOINT RightHandMiddle3
											{
												OFFSET -0.000000 3.654981 -0.000000
												CHANNELS 3 Zrotation Yrotation Xrotation
												JOINT RightHandMiddle4
												{
													OFFSET 0.000000 2.741236 0.000000
													CHANNELS 3 Zrotation Yrotation Xrotation
													End Site
													{
														OFFSET 0.000000 0.000000 0.000000
													}
												}
											}
										}
									}
									JOINT RightHandRing1
									{
										OFFSET 0.086752 8.921708 -2.267442
										CHANNELS 3 Zrotation Yrotation Xrotation
										JOINT RightHandRing2
										{
											OFFSET -0.000000 4.061090 0.000000
											CHANNELS 3 Zrotation Yrotation Xrotation
											JOINT RightHandRing3
											{
												OFFSET -0.000000 3.654981 -0.000000
												CHANNELS 3 Zrotation Yrotation Xrotation
												JOINT RightHandRing4
												{
													OFFSET 0.000000 2.741236 0.000000
													CHANNELS 3 Zrotation Yrotation Xrotation
													End Site
													{
														OFFSET 0.000000 0.000000 0.000000
													}
												}
											}
										}
									}
									JOINT RightHandPinky1
									{
										OFFSET -0.173504 7.976997 -4.467199
										CHANNELS 3 Zrotation Yrotation Xrotation
										JOINT RightHandPinky2
										{
											OFFSET 0.000000 3.350399 0.000000
											CHANNELS 3 Zrotation Yrotation Xrotation
											JOINT RightHandPinky3
											{
												OFFSET 0.000000 2.842763 0.000000
												CHANNELS 3 Zrotation Yrotation Xrotation
												JOINT RightHandPinky4
												{
													OFFSET 0.000000 2.639709 0.000000
													CHANNELS 3 Zrotation Yrotation Xrotation
													End Site
													{
														OFFSET 0.000000 0.000000 0.000000
													}
												}
											}
										}
									}
									JOINT RightForeArmEnd
									{
										OFFSET 0.000000 0.000000 0.000000
										CHANNELS 3 Zrotation Yrotation Xrotation
										End Site
										{
											OFFSET 0.000000 0.000000 0.000000
										}
									}
								}
								JOINT RightArmEnd
								{
									OFFSET 0.000000 0.000000 0.000000
									CHANNELS 3 Zrotation Yrotation Xrotation
									End Site
									{
										OFFSET 0.000000 0.000000 0.000000
									}
								}
							}
						}
					}
					JOINT LeftShoulder
					{
						OFFSET 2.625389 11.175210 -0.000000
						CHANNELS 3 Zrotation Yrotation Xrotation
						JOINT LeftArm
						{
							OFFSET 0.000000 10.813635 0.000000
							CHANNELS 3 Zrotation Yrotation Xrotation
							JOINT LeftForeArm
							{
								OFFSET 0.000000 28.724781 -0.000000
								CHANNELS 3 Zrotation Yrotation Xrotation
								JOINT LeftHand
								{
									OFFSET 0.644384 25.716167 -0.328871
									CHANNELS 3 Zrotation Yrotation Xrotation
									JOINT LeftHandThumb1
									{
										OFFSET 2.867323 3.959563 2.944291
										CHANNELS 3 Zrotation Yrotation Xrotation
										JOINT LeftHandThumb2
										{
											OFFSET -0.000000 3.350399 -0.000000
											CHANNELS 3 Zrotation Yrotation Xrotation
											JOINT LeftHandThumb3
											{
												OFFSET 0.000000 3.756509 -0.000000
												CHANNELS 3 Zrotation Yrotation Xrotation
												JOINT LeftHandThumb4
												{
													OFFSET 0.000000 3.100000 -0.000000
													CHANNELS 3 Zrotation Yrotation Xrotation
													End Site
													{
														OFFSET 0.000000 0.000000 0.000000
													}
												}
											}
										}
									}
									JOINT LeftHandIndex1
									{
										OFFSET 0.086752 10.030893 2.345280
										CHANNELS 3 Zrotation Yrotation Xrotation
										JOINT LeftHandIndex2
										{
											OFFSET -0.000000 4.061090 0.000000
											CHANNELS 3 Zrotation Yrotation Xrotation
											JOINT LeftHandIndex3
											{
												OFFSET -0.000000 3.248873 0.000000
												CHANNELS 3 Zrotation Yrotation Xrotation
												JOINT LeftHandIndex4
												{
													OFFSET 0.000000 2.639709 -0.000000
													CHANNELS 3 Zrotation Yrotation Xrotation
													End Site
													{
														OFFSET 0.000000 0.000000 0.000000
													}
												}
											}
										}
									}
									JOINT LeftHandMiddle1
									{
										OFFSET -0.104102 9.502952 0.006768
										CHANNELS 3 Zrotation Yrotation Xrotation
										JOINT LeftHandMiddle2
										{
											OFFSET -0.000000 4.568727 0.000000
											CHANNELS 3 Zrotation Yrotation Xrotation
											JOINT LeftHandMiddle3
											{
												OFFSET 0.000000 3.654981 -0.000000
												CHANNELS 3 Zrotation Yrotation Xrotation
												JOINT LeftHandMiddle4
												{
													OFFSET -0.000000 2.741236 0.000000
													CHANNELS 3 Zrotation Yrotation Xrotation
													End Site
													{
														OFFSET 0.000000 0.000000 0.000000
													}
												}
											}
										}
									}
									JOINT LeftHandRing1
									{
										OFFSET -0.086752 8.921708 -2.267442
										CHANNELS 3 Zrotation Yrotation Xrotation
										JOINT LeftHandRing2
										{
											OFFSET -0.000000 4.061090 0.000000
											CHANNELS 3 Zrotation Yrotation Xrotation
											JOINT LeftHandRing3
											{
												OFFSET 0.000000 3.654981 -0.000000
												CHANNELS 3 Zrotation Yrotation Xrotation
												JOINT LeftHandRing4
												{
													OFFSET 0.000000 2.741236 -0.000000
													CHANNELS 3 Zrotation Yrotation Xrotation
													End Site
													{
														OFFSET 0.000000 0.000000 0.000000
													}
												}
											}
										}
									}
									JOINT LeftHandPinky1
									{
										OFFSET 0.173504 7.976997 -4.467199
										CHANNELS 3 Zrotation Yrotation Xrotation
										JOINT LeftHandPinky2
										{
											OFFSET 0.000000 3.350399 0.000000
											CHANNELS 3 Zrotation Yrotation Xrotation
											JOINT LeftHandPinky3
											{
												OFFSET -0.000000 2.842763 0.000000
												CHANNELS 3 Zrotation Yrotation Xrotation
												JOINT LeftHandPinky4
												{
													OFFSET 0.000000 2.639709 -0.000000
													CHANNELS 3 Zrotation Yrotation Xrotation
													End Site
													{
														OFFSET 0.000000 0.000000 0.000000
													}
												}
											}
										}
									}
									JOINT LeftForeArmEnd
									{
										OFFSET 0.000000 0.000000 0.000000
										CHANNELS 3 Zrotation Yrotation Xrotation
										End Site
										{
											OFFSET 0.000000 0.000000 0.000000
										}
									}
								}
								JOINT LeftArmEnd
								{
									OFFSET 0.000000 0.000000 0.000000
									CHANNELS 3 Zrotation Yrotation Xrotation
									End Site
									{
										OFFSET 0.000000 0.000000 0.000000
									}
								}
							}
						}
					}
				}
			}
		}
	}
	JOINT RightUpLeg
	{
		OFFSET -11.289943 0.000000 -0.000000
		CHANNELS 3 Zrotation Yrotation Xrotation
		JOINT RightLeg
		{
			OFFSET 0.000000 -38.200325 0.000000
			CHANNELS 3 Zrotation Yrotation Xrotation
			JOINT RightFoot
			{
				OFFSET -0.000000 -39.900856 0.000000
				CHANNELS 3 Zrotation Yrotation Xrotation
				JOINT RightToeBase
				{
					OFFSET -0.000000 -0.000000 15.261641
					CHANNELS 3 Zrotation Yrotation Xrotation
					JOINT RightToeBaseEnd
					{
						OFFSET -0.000000 0.000000 7.370709
						CHANNELS 3 Zrotation Yrotation Xrotation
						End Site
						{
							OFFSET 0.000000 0.000000 0.000000
						}
					}
				}
				JOINT RightLegEnd
				{
					OFFSET 0.000000 0.000000 0.000000
					CHANNELS 3 Zrotation Yrotation Xrotation
					End Site
					{
						OFFSET 0.000000 0.000000 0.000000
					}
				}
			}
			JOINT RightUpLegEnd
			{
				OFFSET 0.000000 0.000000 0.000000
				CHANNELS 3 Zrotation Yrotation Xrotation
				End Site
				{
					OFFSET 0.000000 0.000000 0.000000
				}
			}
		}
	}
	JOINT LeftUpLeg
	{
		OFFSET 11.315661 0.000000 -0.000000
		CHANNELS 3 Zrotation Yrotation Xrotation
		JOINT LeftLeg
		{
			OFFSET -0.000000 -38.200325 0.000000
			CHANNELS 3 Zrotation Yrotation Xrotation
			JOINT LeftFoot
			{
				OFFSET 0.000000 -39.900856 0.000000
				CHANNELS 3 Zrotation Yrotation Xrotation
				JOINT LeftToeBase
				{
					OFFSET -0.000000 -0.000000 15.261641
					CHANNELS 3 Zrotation Yrotation Xrotation
					JOINT LeftToeBaseEnd
					{
						OFFSET 0.000000 -0.000000 7.539996
						CHANNELS 3 Zrotation Yrotation Xrotation
						End Site
						{
							OFFSET 0.000000 0.000000 0.000000
						}
					}
				}
				JOINT LeftLegEnd
				{
					OFFSET 0.000000 0.000000 0.000000
					CHANNELS 3 Zrotation Yrotation Xrotation
					End Site
					{
						OFFSET 0.000000 0.000000 0.000000
					}
				}
			}
			JOINT LeftUpLegEnd
			{
				OFFSET 0.000000 0.000000 0.000000
				CHANNELS 3 Zrotation Yrotation Xrotation
				End Site
				{
					OFFSET 0.000000 0.000000 0.000000
				}
			}
		}
	}
}
MOTION
Frames: 5
Frame Time: 0.016667
-4.489117 87.346947 1.598714 0.400227 2.992816 -7.361017 3.463712 -1.707290 14.462214 -8.258960 0.885350 -23.666159 6.168126 -4.974885 30.418161 -3.560851 -0.262463 -4.564711 4.839357 -0.835585 2.156317 -4.010839 -2.495347 -12.543149 1.039110 3.414501 -22.107269 -0.000000 -0.000000 0.000000 96.849937 -0.978814 7.718694 58.474880 -39.418674 0.905028 2.346941 13.894458 35.839043 5.481323 17.822678 -12.043884 10.937045 -1.865515 39.738766 0.000000 -0.000000 -26.639999 -0.000000 0.000000 -18.500000 0.000000 0.000000 0.000000 17.351278 0.000000 -10.293450 12.145895 -0.000000 0.000000 12.145895 -0.000000 0.000000 -0.000000 -0.000000 -0.000000 17.446384 -0.000000 -11.933043 12.212468 0.000000 -0.000000 12.212468 0.000000 -0.000000 0.000000 0.000000 0.000000 18.144550 0.000000 -12.376219 12.701185 -0.000000 0.000000 12.701185 -0.000000 0.000000 -0.000000 0.000000 -0.000000 17.886635 0.000000 -14.542678 12.520645 0.000000 0.000000 12.520645 -0.000000 0.000000 -0.000000 0.000000 -0.000000 -0.000000 0.000000 0.000000 -0.000000 0.000000 -0.000000 -93.741722 0.559151 7.293961 -55.492821 33.515587 0.227240 -2.383488 -7.193710 48.514618 -0.409180 -27.351639 -18.912048 -9.142713 1.696615 40.542114 0.000000 0.000000 -22.320000 -0.000000 -0.000000 -15.500000 0.000000 0.000000 0.000000 -13.915340 -0.000000 -13.125118 -9.740738 -0.000000 0.000000 -9.740738 0.000000 -0.000000 0.000000 -0.000000 -0.000000 -14.336141 -0.000000 -14.190359 -10.035298 -0.000000 -0.000000 -10.035298 -0.000000 0.000000 -0.000000 0.000000 0.000000 -15.567120 -0.000000 -13.095628 -10.896983 -0.000000 -0.000000 -10.896983 0.000000 0.000000 -0.000000 0.000000 0.000000 -15.674431 -0.000000 -12.742309 -10.972101 -0.000000 -0.000000 -10.972101 0.000000 -0.000000 0.000000 0.000000 0.000000 0.000000 0.000000 0.000000 0.000000 0.000000 0.000000 0.661817 -4.303582 12.053468 -0.096674 -0.673288 9.402593 -5.773757 -12.595728 15.201799 -0.477409 -0.997580 -28.497196 -0.000000 -0.000000 -0.000000 -0.000000 -0.000000 0.000000 0.000000 -0.000000 -0.000000 -0.479858 -0.132829 9.050148 0.091283 0.494638 12.189234 5.648382 2.423157 14.090975 0.175053 0.701993 -28.403799 -0.000000 -0.000000 -0.000000 -0.000000 0.000000 0.000000 0.000000 -0.000000 -0.000000 
-4.493057 87.338600 1.639426 0.398465 2.997153 -7.648547 3.480414 -1.724064 14.460978 -8.416458 0.907106 -23.517670 6.258792 -5.046156 30.530424 -3.549180 -0.267405 -4.495525 4.996860 -0.830386 2.677652 -3.987730 -2.371963 -12.167542 0.960099 3.414551 -22.249578 -0.000000 -0.000000 0.000000 96.916527 -0.991374 7.742912 58.122917 -39.514637 1.173435 2.464696 13.858038 35.628494 5.688904 16.973923 -12.551636 10.937045 -1.865515 39.738766 -0.000000 -0.000000 -26.639999 -0.000000 0.000000 -18.500000 0.000000 0.000000 0.000000 17.076620 0.000000 -10.065283 11.953634 0.000000 0.000000 11.953634 -0.000000 -0.000000 -0.000000 0.000000 0.000000 17.204828 0.000000 -11.724574 12.043380 0.000000 -0.000000 12.043380 0.000000 -0.000000 -0.000000 0.000000 -0.000000 17.965813 0.000000 -12.165339 12.576069 0.000000 -0.000000 12.576069 0.000000 -0.000000 -0.000000 0.000000 -0.000000 17.779955 0.000000 -14.323164 12.445969 0.000000 0.000000 12.445969 0.000000 -0.000000 -0.000000 -0.000000 -0.000000 -0.000000 0.000000 0.000000 -0.000000 0.000000 -0.000000 -93.846123 0.578529 7.367760 -54.953945 33.410568 0.367759 -2.506380 -6.982888 48.222595 -0.098267 -27.104187 -19.588623 -9.142713 1.696615 40.542114 0.000000 0.000000 -22.320000 -0.000000 -0.000000 -15.500000 0.000000 0.000000 0.000000 -13.889274 -0.000000 -13.892565 -9.722491 -0.000000 0.000000 -9.722491 -0.000000 -0.000000 0.000000 -0.000000 -0.000000 -14.373142 -0.000000 -14.927596 -10.061200 0.000000 -0.000000 -10.061200 0.000000 0.000000 -0.000000 0.000000 0.000000 -15.785647 -0.000000 -13.736740 -11.049953 0.000000 -0.000000 -11.049953 -0.000000 0.000000 0.000000 0.000000 -0.000000 -16.077826 -0.000000 -13.266438 -11.254478 0.000000 0.000000 -11.254478 0.000000 -0.000000 0.000000 0.000000 0.000000 0.000000 -0.000000 0.000000 0.000000 -0.000000 0.000000 0.649844 -4.289916 12.397956 -0.096785 -0.671923 9.360162 -5.771764 -12.622671 15.180838 -0.475946 -0.996343 -28.472914 -0.000000 -0.000000 -0.000000 -0.000000 0.000000 -0.000000 0.000000 -0.000000 -0.000000 -0.481101 -0.166283 9.390823 0.091293 0.493927 12.151909 5.640226 2.453393 14.058977 0.178214 0.702832 -28.386864 -0.000000 -0.000000 0.000000 -0.000000 0.000000 0.000000 0.000000 -0.000000 -0.000000 
-4.495520 87.322845 1.699310 0.393299 3.009356 -8.083105 3.336699 -1.667757 14.173914 -8.113965 0.939465 -22.705584 6.028706 -4.926013 30.246635 -3.438451 -0.284450 -4.254402 5.125809 -0.855544 3.874951 -3.908693 -2.255739 -11.287765 0.884902 3.426850 -22.591459 -0.000000 -0.000000 0.000000 97.162834 -1.019050 7.687099 57.498280 -39.628704 1.601567 2.550140 13.908391 35.531876 5.829468 15.910645 -12.881714 10.937045 -1.865515 39.738766 -0.000000 -0.000000 -26.639999 0.000000 -0.000000 -18.500000 0.000000 0.000000 0.000000 16.991232 0.000000 -10.231444 11.893863 -0.000000 -0.000000 11.893863 -0.000000 0.000000 0.000000 -0.000000 0.000000 17.128551 -0.000000 -11.856245 11.989985 0.000000 0.000000 11.989985 0.000000 -0.000000 0.000000 -0.000000 0.000000 17.915867 0.000000 -12.210592 12.541106 -0.000000 0.000000 12.541106 0.000000 -0.000000 -0.000000 -0.000000 -0.000000 17.760294 -0.000000 -14.277738 12.432205 0.000000 0.000000 12.432205 -0.000000 -0.000000 0.000000 0.000000 0.000000 -0.000000 0.000000 0.000000 -0.000000 0.000000 -0.000000 -94.076378 0.607317 7.322681 -54.244389 33.420784 0.645235 -2.617862 -6.878410 48.015404 0.056519 -26.587677 -20.129639 -9.142713 1.696615 40.542114 0.000000 0.000000 -22.320000 -0.000000 0.000000 -15.500000 -0.000000 0.000000 0.000000 -13.731423 -0.000000 -14.471281 -9.611997 0.000000 -0.000000 -9.611997 0.000000 -0.000000 0.000000 -0.000000 -0.000000 -14.382818 0.000000 -15.476884 -10.067972 0.000000 0.000000 -10.067972 -0.000000 -0.000000 -0.000000 0.000000 0.000000 -16.211681 0.000000 -14.151700 -11.348177 -0.000000 0.000000 -11.348177 -0.000000 -0.000000 0.000000 0.000000 0.000000 -16.918653 0.000000 -13.527425 -11.843058 0.000000 0.000000 -11.843058 0.000000 -0.000000 0.000000 0.000000 -0.000000 0.000000 -0.000000 0.000000 -0.000000 0.000000 0.000000 0.640486 -4.254141 12.911466 -0.096900 -0.670619 9.307459 -5.764030 -12.682764 15.139070 -0.476754 -0.995292 -28.429405 -0.000000 -0.000000 -0.000000 -0.000000 0.000000 0.000000 0.000000 -0.000000 -0.000000 -0.474536 -0.173421 9.890651 0.091304 0.493199 12.123408 5.635488 2.452798 13.985061 0.184028 0.703913 -28.336325 -0.000000 -0.000000 -0.000000 -0.000000 -0.000000 0.000000 0.000000 -0.000000 -0.000000 
-4.495670 87.300980 1.775845 0.384343 3.009986 -8.619781 3.019900 -1.529520 13.733072 -7.304014 0.939676 -21.501240 5.432093 -4.582983 29.714905 -3.217519 -0.318229 -3.904954 5.226044 -0.875459 5.638225 -3.803836 -2.143157 -10.225075 0.856959 3.448301 -22.742489 -0.000000 -0.000000 0.000000 97.506882 -1.047098 7.535455 56.747662 -39.735722 2.137021 2.588864 13.975120 35.532932 5.809814 15.232498 -13.089233 10.937045 -1.865515 39.738766 0.000000 0.000000 -26.639999 -0.000000 -0.000000 -18.500000 0.000000 0.000000 0.000000 17.106289 0.000000 -10.698587 11.974401 -0.000000 -0.000000 11.974401 -0.000000 -0.000000 -0.000000 -0.000000 0.000000 17.206898 0.000000 -12.270467 12.044828 -0.000000 -0.000000 12.044828 0.000000 -0.000000 -0.000000 -0.000000 -0.000000 17.924240 0.000000 -12.539132 12.546968 0.000000 0.000000 12.546968 -0.000000 0.000000 0.000000 -0.000000 0.000000 17.695175 0.000000 -14.527147 12.386622 -0.000000 0.000000 12.386622 0.000000 -0.000000 0.000000 -0.000000 -0.000000 -0.000000 0.000000 0.000000 -0.000000 0.000000 -0.000000 -94.363914 0.641711 7.213860 -53.544727 33.491051 0.954081 -2.723361 -6.938731 47.924828 0.198669 -25.896973 -20.682373 -9.142713 1.696615 40.542114 -0.000000 0.000000 -22.320000 0.000000 0.000000 -15.500000 0.000000 0.000000 0.000000 -13.729209 0.000000 -14.729587 -9.610446 -0.000000 -0.000000 -9.610446 0.000000 0.000000 0.000000 -0.000000 -0.000000 -14.649421 0.000000 -15.695096 -10.254594 0.000000 0.000000 -10.254594 -0.000000 -0.000000 0.000000 0.000000 0.000000 -17.131687 0.000000 -14.208545 -11.992182 -0.000000 -0.000000 -11.992182 -0.000000 -0.000000 0.000000 -0.000000 0.000000 -18.476885 0.000000 -13.427382 -12.933820 0.000000 0.000000 -12.933820 0.000000 -0.000000 -0.000000 0.000000 -0.000000 0.000000 -0.000000 0.000000 0.000000 -0.000000 0.000000 0.628520 -4.201949 13.542620 -0.097019 -0.669427 9.249657 -5.752190 -12.751243 15.075585 -0.479916 -0.994369 -28.367620 -0.000000 -0.000000 -0.000000 -0.000000 -0.000000 0.000000 0.000000 -0.000000 -0.000000 -0.460883 -0.159389 10.509213 0.091315 0.492455 12.094678 5.632128 2.448230 13.881024 0.190346 0.704534 -28.258059 -0.000000 -0.000000 -0.000000 -0.000000 -0.000000 0.000000 0.000000 -0.000000 -0.000000 
-4.493566 87.273109 1.865780 0.376733 2.982401 -9.212095 2.620435 -1.343590 13.175482 -6.242130 0.911964 -20.018740 4.656410 -4.117166 28.963051 -2.935706 -0.351596 -3.471246 5.271746 -0.910315 7.812233 -3.720560 -2.068177 -8.922954 0.791171 3.444704 -22.882801 -0.000000 -0.000000 0.000000 97.872452 -1.065875 7.308154 55.990738 -39.801975 2.698359 2.592391 14.075569 35.623260 5.717041 15.018646 -13.160156 10.937045 -1.865515 39.738766 -0.000000 -0.000000 -26.639999 -0.000000 0.000000 -18.500000 -0.000000 0.000000 0.000000 17.066502 -0.000000 -10.879274 11.946551 0.000000 0.000000 11.946551 -0.000000 -0.000000 0.000000 0.000000 0.000000 17.147621 -0.000000 -12.475914 12.003334 0.000000 0.000000 12.003334 -0.000000 -0.000000 -0.000000 0.000000 -0.000000 17.821444 -0.000000 -12.805223 12.475011 0.000000 -0.000000 12.475011 0.000000 -0.000000 0.000000 0.000000 0.000000 17.551584 0.000000 -14.863964 12.286109 -0.000000 -0.000000 12.286109 -0.000000 0.000000 0.000000 -0.000000 0.000000 -0.000000 0.000000 0.000000 -0.000000 0.000000 0.000000 -94.707573 0.679263 7.061059 -52.923302 33.449558 1.224527 -2.766389 -6.990903 47.956581 0.336548 -25.256332 -21.126953 -9.142713 1.696615 40.542114 0.000000 0.000000 -22.320000 -0.000000 0.000000 -15.500000 0.000000 0.000000 0.000000 -13.995657 0.000000 -14.927073 -9.796960 -0.000000 -0.000000 -9.796960 -0.000000 -0.000000 0.000000 0.000000 -0.000000 -15.123482 0.000000 -15.825518 -10.586437 0.000000 0.000000 -10.586437 0.000000 0.000000 -0.000000 0.000000 0.000000 -18.122841 0.000000 -14.165841 -12.685988 -0.000000 0.000000 -12.685988 0.000000 0.000000 0.000000 0.000000 -0.000000 -19.958595 0.000000 -13.225376 -13.971017 -0.000000 0.000000 -13.971017 -0.000000 -0.000000 -0.000000 0.000000 -0.000000 0.000000 -0.000000 0.000000 0.000000 0.000000 0.000000 0.611735 -4.135266 14.237682 -0.097143 -0.668393 9.192576 -5.737852 -12.808283 14.985298 -0.487824 -0.992447 -28.282515 -0.000000 -0.000000 -0.000000 -0.000000 -0.000000 0.000000 0.000000 -0.000000 0.000000 -0.442448 -0.109656 11.200454 0.091326 0.491696 12.063394 5.628549 2.438773 13.750009 0.196423 0.704507 -28.155231 -0.000000 -0.000000 -0.000000 -0.000000 -0.000000 0.000000 0.000000 -0.000000 -0.000000 
